<svg id="visual" viewBox="0 0 900 300" width="900" height="300" xmlns="http://www.w3.org/2000/svg" xmlns:xlink="http://www.w3.org/1999/xlink" version="1.1"><g stroke-width="1" stroke-linejoin="bevel"><path d="M433 167.6L395 144.3L431 175.4Z" fill="#0f3f57" stroke="#0f3f57"></path><path d="M395 144.3L381 175.4L431 175.4Z" fill="#0f364a" stroke="#0f364a"></path><path d="M433 167.6L414 136.4L395 144.3Z" fill="#0f3f57" stroke="#0f3f57"></path><path d="M381 175.4L402 206.6L431 175.4Z" fill="#000a10" stroke="#000a10"></path><path d="M402 206.6L437 201.1L431 175.4Z" fill="#0c1d26" stroke="#0c1d26"></path><path d="M431 175.4L495 201.3L433 167.6Z" fill="#0f3f57" stroke="#0f3f57"></path><path d="M395 144.3L346 167.3L381 175.4Z" fill="#0f364a" stroke="#0f364a"></path><path d="M381 175.4L375 229.1L402 206.6Z" fill="#0d2532" stroke="#0d2532"></path><path d="M414 136.4L387 105.9L395 144.3Z" fill="#0d2532" stroke="#0d2532"></path><path d="M395 144.3L344 100.6L346 167.3Z" fill="#0f3f57" stroke="#0f3f57"></path><path d="M346 167.3L375 229.1L381 175.4Z" fill="#0d2532" stroke="#0d2532"></path><path d="M402 206.6L409 300L437 201.1Z" fill="#0c5a7e" stroke="#0c5a7e"></path><path d="M433 167.6L430 84.7L414 136.4Z" fill="#0e2d3e" stroke="#0e2d3e"></path><path d="M414 136.4L430 84.7L387 105.9Z" fill="#0f364a" stroke="#0f364a"></path><path d="M530 95.7L430 84.7L433 167.6Z" fill="#0f364a" stroke="#0f364a"></path><path d="M430 84.7L393 77.7L387 105.9Z" fill="#0d2532" stroke="#0d2532"></path><path d="M387 105.9L344 100.6L395 144.3Z" fill="#0c1d26" stroke="#0c1d26"></path><path d="M393 77.7L344 100.6L387 105.9Z" fill="#0d5171" stroke="#0d5171"></path><path d="M522 213.3L495 201.3L529 237.1Z" fill="#0c1d26" stroke="#0c1d26"></path><path d="M437 201.1L495 201.3L431 175.4Z" fill="#0f364a" stroke="#0f364a"></path><path d="M430 84.7L406 69.7L393 77.7Z" fill="#000a10" stroke="#000a10"></path><path d="M393 77.7L382 53.9L344 100.6Z" fill="#0c5a7e" stroke="#0c5a7e"></path><path d="M298 169.4L325 223.4L346 167.3Z" fill="#0a638c" stroke="#0a638c"></path><path d="M346 167.3L325 223.4L375 229.1Z" fill="#0d5171" stroke="#0d5171"></path><path d="M495 201.3L513 182.6L433 167.6Z" fill="#0a638c" stroke="#0a638c"></path><path d="M344 100.6L304 131.6L346 167.3Z" fill="#0f364a" stroke="#0f364a"></path><path d="M304 131.6L298 169.4L346 167.3Z" fill="#08151b" stroke="#08151b"></path><path d="M389 0L382 53.9L406 69.7Z" fill="#0f3f57" stroke="#0f3f57"></path><path d="M406 69.7L382 53.9L393 77.7Z" fill="#0f3f57" stroke="#0f3f57"></path><path d="M344 100.6L329 77.7L304 131.6Z" fill="#0a638c" stroke="#0a638c"></path><path d="M280 267.3L335 254.3L325 223.4Z" fill="#0d5171" stroke="#0d5171"></path><path d="M325 223.4L335 254.3L375 229.1Z" fill="#0a638c" stroke="#0a638c"></path><path d="M481 300L495 201.3L437 201.1Z" fill="#0e4863" stroke="#0e4863"></path><path d="M382 53.9L329 77.7L344 100.6Z" fill="#0d5171" stroke="#0d5171"></path><path d="M409 300L402 206.6L375 229.1Z" fill="#08151b" stroke="#08151b"></path><path d="M495 201.3L522 213.3L513 182.6Z" fill="#0d2532" stroke="#0d2532"></path><path d="M522 213.3L536 205.4L513 182.6Z" fill="#0c1d26" stroke="#0c1d26"></path><path d="M513 182.6L530 95.7L433 167.6Z" fill="#0d2532" stroke="#0d2532"></path><path d="M335 254.3L409 300L375 229.1Z" fill="#000a10" stroke="#000a10"></path><path d="M522 213.3L529 237.1L536 205.4Z" fill="#0e2d3e" stroke="#0e2d3e"></path><path d="M409 300L446 300L437 201.1Z" fill="#0c1d26" stroke="#0c1d26"></path><path d="M554 112.6L530 95.7L513 182.6Z" fill="#0c1d26" stroke="#0c1d26"></path><path d="M448 0L389 0L406 69.7Z" fill="#0a638c" stroke="#0a638c"></path><path d="M481 300L529 237.1L495 201.3Z" fill="#08151b" stroke="#08151b"></path><path d="M530 95.7L512 59.9L430 84.7Z" fill="#0f3f57" stroke="#0f3f57"></path><path d="M409 300L437 311.1L446 300Z" fill="#08151b" stroke="#08151b"></path><path d="M446 300L481 300L437 201.1Z" fill="#0e2d3e" stroke="#0e2d3e"></path><path d="M487 324.1L481 300L446 300Z" fill="#000a10" stroke="#000a10"></path><path d="M257 198.6L259 204.1L298 169.4Z" fill="#0d5171" stroke="#0d5171"></path><path d="M298 169.4L259 204.1L325 223.4Z" fill="#0f364a" stroke="#0f364a"></path><path d="M257 198.6L298 169.4L257 103.6Z" fill="#0e2d3e" stroke="#0e2d3e"></path><path d="M257 103.6L298 169.4L304 131.6Z" fill="#0e2d3e" stroke="#0e2d3e"></path><path d="M567 139.3L554 112.6L513 182.6Z" fill="#0c5a7e" stroke="#0c5a7e"></path><path d="M530 95.7L581 62.6L512 59.9Z" fill="#0c1d26" stroke="#0c1d26"></path><path d="M577 160.3L513 182.6L536 205.4Z" fill="#0e4863" stroke="#0e4863"></path><path d="M577 160.3L567 139.3L513 182.6Z" fill="#0f364a" stroke="#0f364a"></path><path d="M312 300L317 300L335 254.3Z" fill="#0f3f57" stroke="#0f3f57"></path><path d="M335 254.3L317 300L409 300Z" fill="#0a638c" stroke="#0a638c"></path><path d="M409 300L317 300L437 311.1Z" fill="#0c1d26" stroke="#0c1d26"></path><path d="M259 50.7L257 103.6L329 77.7Z" fill="#0d5171" stroke="#0d5171"></path><path d="M329 77.7L257 103.6L304 131.6Z" fill="#0c5a7e" stroke="#0c5a7e"></path><path d="M255 226.1L280 267.3L325 223.4Z" fill="#0d2532" stroke="#0d2532"></path><path d="M255 226.1L325 223.4L259 204.1Z" fill="#000a10" stroke="#000a10"></path><path d="M248 252.3L255 226.1L241 246.4Z" fill="#000a10" stroke="#000a10"></path><path d="M257 198.6L255 226.1L259 204.1Z" fill="#08151b" stroke="#08151b"></path><path d="M280 267.3L312 300L335 254.3Z" fill="#0d2532" stroke="#0d2532"></path><path d="M158 330.1L487 324.1L437 311.1Z" fill="#0e2d3e" stroke="#0e2d3e"></path><path d="M448 0L406 69.7L430 84.7Z" fill="#0d2532" stroke="#0d2532"></path><path d="M382 53.9L336 4.9L329 77.7Z" fill="#08151b" stroke="#08151b"></path><path d="M567 139.3L563 102.9L554 112.6Z" fill="#0f364a" stroke="#0f364a"></path><path d="M554 112.6L563 102.9L530 95.7Z" fill="#0a638c" stroke="#0a638c"></path><path d="M581 62.6L512 33.7L512 59.9Z" fill="#0d5171" stroke="#0d5171"></path><path d="M512 59.9L448 0L430 84.7Z" fill="#0e4863" stroke="#0e4863"></path><path d="M616 234.4L577 160.3L536 205.4Z" fill="#0f3f57" stroke="#0f3f57"></path><path d="M594 62.7L581 62.6L563 102.9Z" fill="#0c1d26" stroke="#0c1d26"></path><path d="M512 33.7L448 0L512 59.9Z" fill="#0c1d26" stroke="#0c1d26"></path><path d="M487 324.1L524 294.1L481 300Z" fill="#0d2532" stroke="#0d2532"></path><path d="M481 300L524 294.1L529 237.1Z" fill="#08151b" stroke="#08151b"></path><path d="M529 237.1L616 234.4L536 205.4Z" fill="#0d5171" stroke="#0d5171"></path><path d="M232 300L295 300L280 267.3Z" fill="#0c5a7e" stroke="#0c5a7e"></path><path d="M280 267.3L295 300L312 300Z" fill="#0c5a7e" stroke="#0c5a7e"></path><path d="M158 330.1L437 311.1L317 300Z" fill="#000a10" stroke="#000a10"></path><path d="M342 0L336 4.9L382 53.9Z" fill="#0c1d26" stroke="#0c1d26"></path><path d="M437 311.1L487 324.1L446 300Z" fill="#0f3f57" stroke="#0f3f57"></path><path d="M158 330.1L317 300L312 300Z" fill="#0d5171" stroke="#0d5171"></path><path d="M389 0L342 0L382 53.9Z" fill="#000a10" stroke="#000a10"></path><path d="M487 324.1L529 300L524 294.1Z" fill="#0f364a" stroke="#0f364a"></path><path d="M524 294.1L529 300L529 237.1Z" fill="#0f3f57" stroke="#0f3f57"></path><path d="M342 0L332 0L336 4.9Z" fill="#0f364a" stroke="#0f364a"></path><path d="M336 4.9L293 16.9L329 77.7Z" fill="#0d5171" stroke="#0d5171"></path><path d="M255 226.1L248 252.3L280 267.3Z" fill="#0e2d3e" stroke="#0e2d3e"></path><path d="M241 246.4L255 226.1L210 178.1Z" fill="#0e2d3e" stroke="#0e2d3e"></path><path d="M512 33.7L486 0L448 0Z" fill="#0d5171" stroke="#0d5171"></path><path d="M210 178.1L255 226.1L257 198.6Z" fill="#0e2d3e" stroke="#0e2d3e"></path><path d="M248 252.3L232 300L280 267.3Z" fill="#000a10" stroke="#000a10"></path><path d="M332 0L293 16.9L336 4.9Z" fill="#0f3f57" stroke="#0f3f57"></path><path d="M293 16.9L259 50.7L329 77.7Z" fill="#0c1d26" stroke="#0c1d26"></path><path d="M257 103.6L210 178.1L257 198.6Z" fill="#0e4863" stroke="#0e4863"></path><path d="M259 50.7L234 93.4L257 103.6Z" fill="#0c1d26" stroke="#0c1d26"></path><path d="M197 148.4L210 178.1L257 103.6Z" fill="#000a10" stroke="#000a10"></path><path d="M594 62.7L563 102.9L635 114.9Z" fill="#0f364a" stroke="#0f364a"></path><path d="M563 102.9L581 62.6L530 95.7Z" fill="#0f364a" stroke="#0f364a"></path><path d="M512 33.7L550 -26.1L486 0Z" fill="#000a10" stroke="#000a10"></path><path d="M293 16.9L273 13.9L259 50.7Z" fill="#08151b" stroke="#08151b"></path><path d="M259 50.7L211 67.7L234 93.4Z" fill="#0a638c" stroke="#0a638c"></path><path d="M332 0L273 13.9L293 16.9Z" fill="#0e2d3e" stroke="#0e2d3e"></path><path d="M211 67.7L197 148.4L234 93.4Z" fill="#0e4863" stroke="#0e4863"></path><path d="M234 93.4L197 148.4L257 103.6Z" fill="#0e2d3e" stroke="#0e2d3e"></path><path d="M635 114.9L563 102.9L567 139.3Z" fill="#0d5171" stroke="#0d5171"></path><path d="M581 62.6L562 0L512 33.7Z" fill="#0f3f57" stroke="#0f3f57"></path><path d="M273 13.9L236 37.9L259 50.7Z" fill="#0c5a7e" stroke="#0c5a7e"></path><path d="M593 300L616 234.4L529 237.1Z" fill="#0e2d3e" stroke="#0e2d3e"></path><path d="M577 160.3L635 114.9L567 139.3Z" fill="#0c1d26" stroke="#0c1d26"></path><path d="M236 37.9L211 67.7L259 50.7Z" fill="#0e4863" stroke="#0e4863"></path><path d="M160 300L232 300L241 246.4Z" fill="#000a10" stroke="#000a10"></path><path d="M241 246.4L232 300L248 252.3Z" fill="#0d2532" stroke="#0d2532"></path><path d="M295 300L158 330.1L312 300Z" fill="#0c5a7e" stroke="#0c5a7e"></path><path d="M169 195.3L241 246.4L210 178.1Z" fill="#0e4863" stroke="#0e4863"></path><path d="M487 324.1L554 336.1L529 300Z" fill="#0c5a7e" stroke="#0c5a7e"></path><path d="M529 300L593 300L529 237.1Z" fill="#0f3f57" stroke="#0f3f57"></path><path d="M158 330.1L554 336.1L487 324.1Z" fill="#0f3f57" stroke="#0f3f57"></path><path d="M572 0L562 0L581 62.6Z" fill="#0e4863" stroke="#0e4863"></path><path d="M554 336.1L593 300L529 300Z" fill="#000a10" stroke="#000a10"></path><path d="M674 157.7L635 114.9L577 160.3Z" fill="#0a638c" stroke="#0a638c"></path><path d="M594 62.7L572 0L581 62.6Z" fill="#0f364a" stroke="#0f364a"></path><path d="M605 0L572 0L594 62.7Z" fill="#000a10" stroke="#000a10"></path><path d="M572 0L550 -26.1L562 0Z" fill="#0c1d26" stroke="#0c1d26"></path><path d="M562 0L550 -26.1L512 33.7Z" fill="#0c1d26" stroke="#0c1d26"></path><path d="M486 0L550 -26.1L448 0Z" fill="#0e2d3e" stroke="#0e2d3e"></path><path d="M448 0L550 -26.1L389 0Z" fill="#0d5171" stroke="#0d5171"></path><path d="M389 0L550 -26.1L342 0Z" fill="#0c1d26" stroke="#0c1d26"></path><path d="M342 0L550 -26.1L332 0Z" fill="#0a638c" stroke="#0a638c"></path><path d="M113 185.1L169 195.3L197 148.4Z" fill="#0e2d3e" stroke="#0e2d3e"></path><path d="M197 148.4L169 195.3L210 178.1Z" fill="#0d2532" stroke="#0d2532"></path><path d="M236 37.9L205 0L211 67.7Z" fill="#08151b" stroke="#08151b"></path><path d="M131 215.1L156 228.3L169 195.3Z" fill="#0e2d3e" stroke="#0e2d3e"></path><path d="M273 13.9L230 -5.1L236 37.9Z" fill="#000a10" stroke="#000a10"></path><path d="M332 0L230 -5.1L273 13.9Z" fill="#0a638c" stroke="#0a638c"></path><path d="M550 -26.1L230 -5.1L332 0Z" fill="#000a10" stroke="#000a10"></path><path d="M620 0L605 0L594 62.7Z" fill="#0e4863" stroke="#0e4863"></path><path d="M572 0L605 0L550 -26.1Z" fill="#0a638c" stroke="#0a638c"></path><path d="M153 94.7L197 148.4L211 67.7Z" fill="#0d2532" stroke="#0d2532"></path><path d="M169 195.3L156 228.3L241 246.4Z" fill="#0d5171" stroke="#0d5171"></path><path d="M648 61.9L643 52.7L594 62.7Z" fill="#0e4863" stroke="#0e4863"></path><path d="M663 72.6L648 61.9L635 114.9Z" fill="#0f3f57" stroke="#0f3f57"></path><path d="M635 114.9L648 61.9L594 62.7Z" fill="#0f3f57" stroke="#0f3f57"></path><path d="M230 -5.1L205 0L236 37.9Z" fill="#0f364a" stroke="#0f364a"></path><path d="M162 44.7L153 94.7L211 67.7Z" fill="#08151b" stroke="#08151b"></path><path d="M679 233.3L674 157.7L616 234.4Z" fill="#0d5171" stroke="#0d5171"></path><path d="M616 234.4L674 157.7L577 160.3Z" fill="#000a10" stroke="#000a10"></path><path d="M689 0L620 0L643 52.7Z" fill="#0e4863" stroke="#0e4863"></path><path d="M643 52.7L620 0L594 62.7Z" fill="#0f3f57" stroke="#0f3f57"></path><path d="M605 0L620 0L550 -26.1Z" fill="#0f364a" stroke="#0f364a"></path><path d="M554 336.1L642 300L593 300Z" fill="#0f364a" stroke="#0f364a"></path><path d="M593 300L642 300L616 234.4Z" fill="#0c5a7e" stroke="#0c5a7e"></path><path d="M686 105.4L663 72.6L635 114.9Z" fill="#000a10" stroke="#000a10"></path><path d="M648 61.9L663 72.6L643 52.7Z" fill="#000a10" stroke="#000a10"></path><path d="M642 300L662 262.1L616 234.4Z" fill="#0e2d3e" stroke="#0e2d3e"></path><path d="M165 32.9L162 44.7L211 67.7Z" fill="#0a638c" stroke="#0a638c"></path><path d="M230 -5.1L187 0L205 0Z" fill="#0e4863" stroke="#0e4863"></path><path d="M205 0L165 32.9L211 67.7Z" fill="#0e4863" stroke="#0e4863"></path><path d="M187 0L165 32.9L205 0Z" fill="#000a10" stroke="#000a10"></path><path d="M713 213.3L679 233.3L736 235.3Z" fill="#0c5a7e" stroke="#0c5a7e"></path><path d="M662 262.1L679 233.3L616 234.4Z" fill="#0c1d26" stroke="#0c1d26"></path><path d="M162 44.7L141 83.6L153 94.7Z" fill="#0d5171" stroke="#0d5171"></path><path d="M113 185.1L131 215.1L169 195.3Z" fill="#0f3f57" stroke="#0f3f57"></path><path d="M149 11.7L141 83.6L162 44.7Z" fill="#0d5171" stroke="#0d5171"></path><path d="M554 336.1L654 300L642 300Z" fill="#0c1d26" stroke="#0c1d26"></path><path d="M642 300L654 300L662 262.1Z" fill="#0c5a7e" stroke="#0c5a7e"></path><path d="M113 185.1L197 148.4L153 94.7Z" fill="#08151b" stroke="#08151b"></path><path d="M156 228.3L160 300L241 246.4Z" fill="#0e4863" stroke="#0e4863"></path><path d="M94 288.1L160 300L156 228.3Z" fill="#0a638c" stroke="#0a638c"></path><path d="M232 300L158 330.1L295 300Z" fill="#0c1d26" stroke="#0c1d26"></path><path d="M674 157.7L686 105.4L635 114.9Z" fill="#0f364a" stroke="#0f364a"></path><path d="M663 72.6L689 0L643 52.7Z" fill="#0d2532" stroke="#0d2532"></path><path d="M693 151.7L686 105.4L674 157.7Z" fill="#0d5171" stroke="#0d5171"></path><path d="M700 192.1L693 151.7L674 157.7Z" fill="#0e4863" stroke="#0e4863"></path><path d="M187 0L175 0L165 32.9Z" fill="#0a638c" stroke="#0a638c"></path><path d="M165 32.9L149 11.7L162 44.7Z" fill="#0f3f57" stroke="#0f3f57"></path><path d="M230 -5.1L175 0L187 0Z" fill="#0c1d26" stroke="#0c1d26"></path><path d="M679 233.3L700 192.1L674 157.7Z" fill="#0e2d3e" stroke="#0e2d3e"></path><path d="M719 146.3L693 93.4L686 105.4Z" fill="#0e4863" stroke="#0e4863"></path><path d="M706 200.6L700 192.1L679 233.3Z" fill="#0e2d3e" stroke="#0e2d3e"></path><path d="M704 152.6L686 105.4L693 151.7Z" fill="#0c1d26" stroke="#0c1d26"></path><path d="M686 105.4L693 93.4L663 72.6Z" fill="#0e2d3e" stroke="#0e2d3e"></path><path d="M82 154.7L113 185.1L153 94.7Z" fill="#0f364a" stroke="#0f364a"></path><path d="M94 288.1L158 330.1L160 300Z" fill="#0c5a7e" stroke="#0c5a7e"></path><path d="M700 192.1L704 152.6L693 151.7Z" fill="#000a10" stroke="#000a10"></path><path d="M94 288.1L156 228.3L131 215.1Z" fill="#0d5171" stroke="#0d5171"></path><path d="M160 300L158 330.1L232 300Z" fill="#0a638c" stroke="#0a638c"></path><path d="M713 213.3L706 200.6L679 233.3Z" fill="#0a638c" stroke="#0a638c"></path><path d="M723 196.1L719 146.3L704 152.6Z" fill="#0c1d26" stroke="#0c1d26"></path><path d="M175 0L149 11.7L165 32.9Z" fill="#08151b" stroke="#08151b"></path><path d="M71 129.4L82 154.7L153 94.7Z" fill="#0d2532" stroke="#0d2532"></path><path d="M705 300L679 233.3L662 262.1Z" fill="#0d2532" stroke="#0d2532"></path><path d="M723 196.1L704 152.6L700 192.1Z" fill="#0f3f57" stroke="#0f3f57"></path><path d="M723 196.1L700 192.1L706 200.6Z" fill="#0e4863" stroke="#0e4863"></path><path d="M704 152.6L719 146.3L686 105.4Z" fill="#0e4863" stroke="#0e4863"></path><path d="M713 213.3L723 196.1L706 200.6Z" fill="#0d5171" stroke="#0d5171"></path><path d="M554 336.1L705 300L654 300Z" fill="#0a638c" stroke="#0a638c"></path><path d="M654 300L705 300L662 262.1Z" fill="#0d2532" stroke="#0d2532"></path><path d="M713 213.3L736 235.3L723 196.1Z" fill="#08151b" stroke="#08151b"></path><path d="M732 45.9L663 72.6L693 93.4Z" fill="#08151b" stroke="#08151b"></path><path d="M732 45.9L689 0L663 72.6Z" fill="#0f364a" stroke="#0f364a"></path><path d="M620 0L689 0L550 -26.1Z" fill="#0a638c" stroke="#0a638c"></path><path d="M71 129.4L153 94.7L141 83.6Z" fill="#0c5a7e" stroke="#0c5a7e"></path><path d="M68 226.4L94 288.1L131 215.1Z" fill="#0d5171" stroke="#0d5171"></path><path d="M705 300L736 235.3L679 233.3Z" fill="#0f364a" stroke="#0f364a"></path><path d="M790 165.7L743 98.4L719 146.3Z" fill="#0c1d26" stroke="#0c1d26"></path><path d="M68 226.4L131 215.1L113 185.1Z" fill="#0c1d26" stroke="#0c1d26"></path><path d="M59 112.4L71 129.4L141 83.6Z" fill="#0d5171" stroke="#0d5171"></path><path d="M55 209.3L68 226.4L113 185.1Z" fill="#0c5a7e" stroke="#0c5a7e"></path><path d="M719 146.3L743 98.4L693 93.4Z" fill="#0f364a" stroke="#0f364a"></path><path d="M790 165.7L719 146.3L723 196.1Z" fill="#0c5a7e" stroke="#0c5a7e"></path><path d="M747 70.6L732 45.9L693 93.4Z" fill="#000a10" stroke="#000a10"></path><path d="M55 209.3L113 185.1L82 154.7Z" fill="#0f364a" stroke="#0f364a"></path><path d="M71 129.4L62 146.6L82 154.7Z" fill="#08151b" stroke="#08151b"></path><path d="M15 300L87 300L94 288.1Z" fill="#0c5a7e" stroke="#0c5a7e"></path><path d="M94 288.1L87 300L158 330.1Z" fill="#0c5a7e" stroke="#0c5a7e"></path><path d="M755 44.9L747 70.6L829 59.7Z" fill="#0e2d3e" stroke="#0e2d3e"></path><path d="M743 98.4L747 70.6L693 93.4Z" fill="#0d5171" stroke="#0d5171"></path><path d="M64 58.9L59 112.4L141 83.6Z" fill="#0d5171" stroke="#0d5171"></path><path d="M71 129.4L59 112.4L62 146.6Z" fill="#0c1d26" stroke="#0c1d26"></path><path d="M62 146.6L55 209.3L82 154.7Z" fill="#000a10" stroke="#000a10"></path><path d="M26 216.3L55 209.3L0 188.3Z" fill="#0d5171" stroke="#0d5171"></path><path d="M68 226.4L15 300L94 288.1Z" fill="#0d5171" stroke="#0d5171"></path><path d="M149 11.7L64 58.9L141 83.6Z" fill="#0f364a" stroke="#0f364a"></path><path d="M819 106.6L747 70.6L743 98.4Z" fill="#000a10" stroke="#000a10"></path><path d="M747 70.6L755 44.9L732 45.9Z" fill="#0d5171" stroke="#0d5171"></path><path d="M732 45.9L737 0L689 0Z" fill="#0e4863" stroke="#0e4863"></path><path d="M755 44.9L737 0L732 45.9Z" fill="#0d5171" stroke="#0d5171"></path><path d="M689 0L737 0L550 -26.1Z" fill="#000a10" stroke="#000a10"></path><path d="M705 300L753 300L736 235.3Z" fill="#0e4863" stroke="#0e4863"></path><path d="M736 235.3L776 208.1L723 196.1Z" fill="#0d5171" stroke="#0d5171"></path><path d="M554 336.1L753 300L705 300Z" fill="#000a10" stroke="#000a10"></path><path d="M774 247.4L776 208.1L736 235.3Z" fill="#0c5a7e" stroke="#0c5a7e"></path><path d="M64 58.9L42 109.6L59 112.4Z" fill="#08151b" stroke="#08151b"></path><path d="M59 112.4L42 109.6L62 146.6Z" fill="#0a638c" stroke="#0a638c"></path><path d="M753 300L774 247.4L736 235.3Z" fill="#0f3f57" stroke="#0f3f57"></path><path d="M774 6.9L750 0L755 44.9Z" fill="#0a638c" stroke="#0a638c"></path><path d="M755 44.9L750 0L737 0Z" fill="#0f364a" stroke="#0f364a"></path><path d="M737 0L750 0L550 -26.1Z" fill="#0a638c" stroke="#0a638c"></path><path d="M830 146.4L790 165.7L856 157.7Z" fill="#08151b" stroke="#08151b"></path><path d="M776 208.1L790 165.7L723 196.1Z" fill="#0c5a7e" stroke="#0c5a7e"></path><path d="M0 169.6L55 209.3L62 146.6Z" fill="#0f364a" stroke="#0f364a"></path><path d="M55 209.3L26 216.3L68 226.4Z" fill="#0f364a" stroke="#0f364a"></path><path d="M792 0L774 6.9L829 59.7Z" fill="#0d5171" stroke="#0d5171"></path><path d="M175 0L47 -14.1L149 11.7Z" fill="#0a638c" stroke="#0a638c"></path><path d="M149 11.7L47 -14.1L64 58.9Z" fill="#0d5171" stroke="#0d5171"></path><path d="M0 88.7L0 136.4L42 109.6Z" fill="#0e4863" stroke="#0e4863"></path><path d="M0 136.4L0 169.6L62 146.6Z" fill="#0c5a7e" stroke="#0c5a7e"></path><path d="M230 -5.1L47 -14.1L175 0Z" fill="#0e2d3e" stroke="#0e2d3e"></path><path d="M550 -26.1L47 -14.1L230 -5.1Z" fill="#0c1d26" stroke="#0c1d26"></path><path d="M753 300L793 300L774 247.4Z" fill="#0d2532" stroke="#0d2532"></path><path d="M840 239.3L790 165.7L776 208.1Z" fill="#0c1d26" stroke="#0c1d26"></path><path d="M554 336.1L793 300L753 300Z" fill="#08151b" stroke="#08151b"></path><path d="M0 136.4L62 146.6L42 109.6Z" fill="#08151b" stroke="#08151b"></path><path d="M0 169.6L0 188.3L55 209.3Z" fill="#0d2532" stroke="#0d2532"></path><path d="M26 216.3L0 236.1L68 226.4Z" fill="#000a10" stroke="#000a10"></path><path d="M0 88.7L42 109.6L64 58.9Z" fill="#0d5171" stroke="#0d5171"></path><path d="M0 188.3L0 236.1L26 216.3Z" fill="#08151b" stroke="#08151b"></path><path d="M823 115.4L819 106.6L790 165.7Z" fill="#000a10" stroke="#000a10"></path><path d="M790 165.7L819 106.6L743 98.4Z" fill="#0f3f57" stroke="#0f3f57"></path><path d="M15 0L0 88.7L64 58.9Z" fill="#0f364a" stroke="#0f364a"></path><path d="M0 236.1L15 300L68 226.4Z" fill="#0e4863" stroke="#0e4863"></path><path d="M87 300L15 300L158 330.1Z" fill="#0d2532" stroke="#0d2532"></path><path d="M830 146.4L823 115.4L790 165.7Z" fill="#0e4863" stroke="#0e4863"></path><path d="M829 59.7L774 6.9L755 44.9Z" fill="#0c1d26" stroke="#0c1d26"></path><path d="M829 59.7L747 70.6L819 106.6Z" fill="#0f3f57" stroke="#0f3f57"></path><path d="M774 6.9L792 0L750 0Z" fill="#0c1d26" stroke="#0c1d26"></path><path d="M750 0L792 0L550 -26.1Z" fill="#0a638c" stroke="#0a638c"></path><path d="M840 239.3L776 208.1L774 247.4Z" fill="#0a638c" stroke="#0a638c"></path><path d="M0 236.1L4 300L15 300Z" fill="#0d2532" stroke="#0d2532"></path><path d="M15 300L4 300L158 330.1Z" fill="#08151b" stroke="#08151b"></path><path d="M47 -14.1L15 0L64 58.9Z" fill="#0e4863" stroke="#0e4863"></path><path d="M0 -12.1L13 0L15 0Z" fill="#0f364a" stroke="#0f364a"></path><path d="M15 0L13 0L0 88.7Z" fill="#0e2d3e" stroke="#0e2d3e"></path><path d="M0 236.1L0 300L4 300Z" fill="#0f364a" stroke="#0f364a"></path><path d="M4 300L0 300L158 330.1Z" fill="#0a638c" stroke="#0a638c"></path><path d="M900 62.7L829 59.7L819 106.6Z" fill="#0e4863" stroke="#0e4863"></path><path d="M900 62.7L819 106.6L823 115.4Z" fill="#0c1d26" stroke="#0c1d26"></path><path d="M793 300L840 239.3L774 247.4Z" fill="#0a638c" stroke="#0a638c"></path><path d="M830 146.4L856 157.7L823 115.4Z" fill="#0e4863" stroke="#0e4863"></path><path d="M0 -12.1L0 0L13 0Z" fill="#0d2532" stroke="#0d2532"></path><path d="M13 0L0 0L0 88.7Z" fill="#08151b" stroke="#08151b"></path><path d="M0 188.3L-36 169.6L0 236.1Z" fill="#0c5a7e" stroke="#0c5a7e"></path><path d="M0 236.1L-36 169.6L0 300Z" fill="#0a638c" stroke="#0a638c"></path><path d="M0 169.6L-36 169.6L0 188.3Z" fill="#0c1d26" stroke="#0c1d26"></path><path d="M0 136.4L-36 169.6L0 169.6Z" fill="#0a638c" stroke="#0a638c"></path><path d="M0 88.7L-36 169.6L0 136.4Z" fill="#0d5171" stroke="#0d5171"></path><path d="M0 0L-36 169.6L0 88.7Z" fill="#0e4863" stroke="#0e4863"></path><path d="M47 -14.1L0 -12.1L15 0Z" fill="#0a638c" stroke="#0a638c"></path><path d="M0 0L0 -12.1L-36 169.6Z" fill="#0d5171" stroke="#0d5171"></path><path d="M840 239.3L856 157.7L790 165.7Z" fill="#000a10" stroke="#000a10"></path><path d="M900 62.7L862 21.9L829 59.7Z" fill="#0d2532" stroke="#0d2532"></path><path d="M829 59.7L862 21.9L792 0Z" fill="#0c1d26" stroke="#0c1d26"></path><path d="M793 300L877 255.1L840 239.3Z" fill="#0f364a" stroke="#0f364a"></path><path d="M840 239.3L889 172.3L856 157.7Z" fill="#0f3f57" stroke="#0f3f57"></path><path d="M856 157.7L900 132.4L823 115.4Z" fill="#000a10" stroke="#000a10"></path><path d="M900 188.3L889 172.3L900 200.1Z" fill="#0e4863" stroke="#0e4863"></path><path d="M900 188.3L890 165.6L889 172.3Z" fill="#0f3f57" stroke="#0f3f57"></path><path d="M889 172.3L890 165.6L856 157.7Z" fill="#0d5171" stroke="#0d5171"></path><path d="M900 200.1L889 172.3L840 239.3Z" fill="#0e4863" stroke="#0e4863"></path><path d="M890 165.6L900 132.4L856 157.7Z" fill="#0c1d26" stroke="#0c1d26"></path><path d="M900 188.3L900 132.4L890 165.6Z" fill="#0f364a" stroke="#0f364a"></path><path d="M877 255.1L900 200.1L840 239.3Z" fill="#0f3f57" stroke="#0f3f57"></path><path d="M900 132.4L900 62.7L823 115.4Z" fill="#000a10" stroke="#000a10"></path><path d="M900 62.7L900 47.6L862 21.9Z" fill="#0d5171" stroke="#0d5171"></path><path d="M793 300L900 300L877 255.1Z" fill="#0f3f57" stroke="#0f3f57"></path><path d="M877 255.1L911 300L900 200.1Z" fill="#08151b" stroke="#08151b"></path><path d="M554 336.1L900 300L793 300Z" fill="#000a10" stroke="#000a10"></path><path d="M900 47.6L900 12.9L862 21.9Z" fill="#0c1d26" stroke="#0c1d26"></path><path d="M862 21.9L900 0L792 0Z" fill="#0e2d3e" stroke="#0e2d3e"></path><path d="M900 12.9L900 0L862 21.9Z" fill="#0a638c" stroke="#0a638c"></path><path d="M792 0L900 0L550 -26.1Z" fill="#0d5171" stroke="#0d5171"></path><path d="M554 336.1L911 300L900 300Z" fill="#000a10" stroke="#000a10"></path><path d="M900 300L911 300L877 255.1Z" fill="#08151b" stroke="#08151b"></path><path d="M900 200.1L911 300L900 188.3Z" fill="#0f364a" stroke="#0f364a"></path><path d="M900 188.3L917 0L900 132.4Z" fill="#08151b" stroke="#08151b"></path><path d="M900 132.4L917 0L900 62.7Z" fill="#0a638c" stroke="#0a638c"></path><path d="M900 62.7L917 0L900 47.6Z" fill="#0d5171" stroke="#0d5171"></path><path d="M900 47.6L917 0L900 12.9Z" fill="#08151b" stroke="#08151b"></path><path d="M900 12.9L917 0L900 0Z" fill="#08151b" stroke="#08151b"></path><path d="M911 300L917 0L900 188.3Z" fill="#0d2532" stroke="#0d2532"></path><path d="M900 0L917 0L550 -26.1Z" fill="#0e2d3e" stroke="#0e2d3e"></path></g></svg>